<svg xmlns="http://www.w3.org/2000/svg" width="100" height="90" viewBox="0 0 100 90">
  <metadata><?xpacket begin="﻿" id="W5M0MpCehiHzreSzNTczkc9d"?>
<x:xmpmeta xmlns:x="adobe:ns:meta/" x:xmptk="Adobe XMP Core 5.6-c142 79.160924, 2017/07/13-01:06:39        ">
   <rdf:RDF xmlns:rdf="http://www.w3.org/1999/02/22-rdf-syntax-ns#">
      <rdf:Description rdf:about=""/>
   </rdf:RDF>
</x:xmpmeta>
                                                                                                    
                                                                                                    
                                                                                                    
                                                                                                    
                                                                                                    
                                                                                                    
                                                                                                    
                                                                                                    
                                                                                                    
                                                                                                    
                                                                                                    
                                                                                                    
                                                                                                    
                                                                                                    
                                                                                                    
                                                                                                    
                                                                                                    
                                                                                                    
                                                                                                    
                                                                                                    
                           
<?xpacket end="w"?></metadata>
<defs>
    <style>
      .cls-1 {
        fill: #fff;
        fill-rule: evenodd;
      }
    </style>
  </defs>
  <path class="cls-1" d="M48.557,0.023A7.1,7.1,0,0,0,41.531,5.78H41.348L18.284,31.743H29.816L45.769,13.806a7.179,7.179,0,0,0,2.788.636,7.265,7.265,0,0,0,2.8-.636L67.3,31.743h11.55L55.766,5.78H55.581A7.069,7.069,0,0,0,48.557.023h0ZM6.754,37.5A5.764,5.764,0,0,0,.979,43.278v2.883A5.7,5.7,0,0,0,6.3,51.839L15.4,83.645c2.887,5.771,5.775,5.771,8.643,5.771H75.957c2.888,0,5.757,0,8.645-5.771l9.112-31.806a5.7,5.7,0,0,0,5.306-5.678V43.278A5.751,5.751,0,0,0,93.264,37.5H6.754ZM22.975,51.922h1.434a7.423,7.423,0,0,1,7.026,5.407l4.055,17.94a4.4,4.4,0,0,1-4.59,5.49H29.448a7.488,7.488,0,0,1-7.024-5.49l-4.055-17.94c-0.674-3,1.408-5.407,4.606-5.407h0Zm27.035,0A5.751,5.751,0,0,1,55.766,57.7V75a5.766,5.766,0,0,1-11.532,0V57.7a5.764,5.764,0,0,1,5.775-5.775h0Zm25.582,0h1.452c3.194,0,5.262,2.408,4.588,5.407l-4.055,17.94a7.485,7.485,0,0,1-7.026,5.49H69.1a4.4,4.4,0,0,1-4.588-5.49l4.055-17.94a7.427,7.427,0,0,1,7.026-5.407h0Z"/>
</svg>
