<svg xmlns="http://www.w3.org/2000/svg" width="96" height="83" viewBox="0 0 96 83">
  <metadata><?xpacket begin="﻿" id="W5M0MpCehiHzreSzNTczkc9d"?>
<x:xmpmeta xmlns:x="adobe:ns:meta/" x:xmptk="Adobe XMP Core 5.6-c142 79.160924, 2017/07/13-01:06:39        ">
   <rdf:RDF xmlns:rdf="http://www.w3.org/1999/02/22-rdf-syntax-ns#">
      <rdf:Description rdf:about=""/>
   </rdf:RDF>
</x:xmpmeta>
                                                                                                    
                                                                                                    
                                                                                                    
                                                                                                    
                                                                                                    
                                                                                                    
                                                                                                    
                                                                                                    
                                                                                                    
                                                                                                    
                                                                                                    
                                                                                                    
                                                                                                    
                                                                                                    
                                                                                                    
                                                                                                    
                                                                                                    
                                                                                                    
                                                                                                    
                                                                                                    
                           
<?xpacket end="w"?></metadata>
<defs>
    <style>
      .cls-1 {
        fill: #fff;
        fill-rule: evenodd;
      }
    </style>
  </defs>
  <path class="cls-1" d="M12.154,0.973A11.157,11.157,0,0,0,.98,12.16V54.075A11.147,11.147,0,0,0,12.154,65.252H37.3v8.376H26.126a2.8,2.8,0,0,0-2.8,2.8v5.593H73.634V76.425a2.8,2.8,0,0,0-2.8-2.8H59.663V65.252H84.809A11.147,11.147,0,0,0,95.983,54.075V12.16A11.157,11.157,0,0,0,84.809.973H12.154Zm2.8,11.187h67.06a2.782,2.782,0,0,1,2.8,2.785V51.281a2.79,2.79,0,0,1-2.8,2.794H14.951a2.8,2.8,0,0,1-2.8-2.794V14.945a2.791,2.791,0,0,1,2.8-2.785h0Z"/>
</svg>
