<svg xmlns="http://www.w3.org/2000/svg" width="78" height="108" viewBox="0 0 78 108">
  <metadata><?xpacket begin="﻿" id="W5M0MpCehiHzreSzNTczkc9d"?>
<x:xmpmeta xmlns:x="adobe:ns:meta/" x:xmptk="Adobe XMP Core 5.6-c142 79.160924, 2017/07/13-01:06:39        ">
   <rdf:RDF xmlns:rdf="http://www.w3.org/1999/02/22-rdf-syntax-ns#">
      <rdf:Description rdf:about=""/>
   </rdf:RDF>
</x:xmpmeta>
                                                                                                    
                                                                                                    
                                                                                                    
                                                                                                    
                                                                                                    
                                                                                                    
                                                                                                    
                                                                                                    
                                                                                                    
                                                                                                    
                                                                                                    
                                                                                                    
                                                                                                    
                                                                                                    
                                                                                                    
                                                                                                    
                                                                                                    
                                                                                                    
                                                                                                    
                                                                                                    
                           
<?xpacket end="w"?></metadata>
<defs>
    <style>
      .cls-1 {
        fill: #fff;
        fill-rule: evenodd;
      }
    </style>
  </defs>
  <path class="cls-1" d="M75.69,25.116L69.121,35.66,36.332,15.246,42.9,4.7A9.937,9.937,0,0,1,56.581,1.517l15.927,9.916A9.936,9.936,0,0,1,75.69,25.116ZM36.269,88.308L3.552,67.9,33.836,19.357,66.555,39.783Zm4.417-56.66a3.172,3.172,0,0,0-4.4.871L14.756,67.006a3.154,3.154,0,0,0,1.162,4.327,3.2,3.2,0,0,0,4.4-.84l21.525-34.5A3.2,3.2,0,0,0,40.686,31.648Zm11.854,7.4a3.19,3.19,0,0,0-4.405.868L26.6,74.409a3.3,3.3,0,0,0,5.579,3.478L53.714,43.4A3.218,3.218,0,0,0,52.54,39.044Zm-33.731,61.2a19.841,19.841,0,0,0-7.432-8.368A19.836,19.836,0,0,0,.6,88.9L0,73.686l32.69,20.4ZM9.59,94.736a15.51,15.51,0,0,1,6.016,6.923L1.338,107.985,0.729,92.393A15.559,15.559,0,0,1,9.59,94.736Z"/>
</svg>
